# xmcd CD database file
#
# Track frame offsets:
#	150
#	14977
#	28977
#	42560
#	54845
#	73247
#	84080
#	97342
#	112987
#	133472
#	146305
#	161745
#	177282
#	191122
#	205887
#	220005
#	236030
#	247912
#	257522
#	265392
#
# Disc length: 3734 seconds
#
# Revision: 0
# Processed by: cddbd v1.5.1PL0 Copyright (c) Steve Scherf et al.
# Submitted via: CDex 1.51
#
DISCID=310e9414
DTITLE=Michael O'Duffy - The Golden Voice Of Ireland
DYEAR=1900
DGENRE=Country
TTITLE0=The Risin' Of The Moon
TTITLE1=Come Back Paddy Reilly
TTITLE2=Eileen O'Grady
TTITLE3=Little Town In The Ould County Down
TTITLE4=The Kerry Dance
TTITLE5=Because I Love You So
TTITLE6=Down By The Glenside
TTITLE7=The Green Glens Of Antrim
TTITLE8=Medley Of Irish Songs
TTITLE9=When You Come To The End Of The Day
TTITLE10=Lovely Derry On The Banks Of The Foyle
TTITLE11=Old Rustic Bridge By The Mill
TTITLE12=Here's A Toast To You Claddagh
TTITLE13=Believe Me, If All Those Endearing Young Charms
TTITLE14=Love Is Teasin'
TTITLE15=Leprechaun Lullaby
TTITLE16=Many Young Men Of Twenty
TTITLE17=Star Of The County Down
TTITLE18=The One-Eyed Riley
TTITLE19=The Old Refrain
EXTD=
EXTT0=
EXTT1=
EXTT2=
EXTT3=
EXTT4=
EXTT5=
EXTT6=
EXTT7=
EXTT8=
EXTT9=
EXTT10=
EXTT11=
EXTT12=
EXTT13=
EXTT14=
EXTT15=
EXTT16=
EXTT17=
EXTT18=
EXTT19=
PLAYORDER=
